<svg width="48" height="48" viewBox="0 0 48 48" fill="none" xmlns="http://www.w3.org/2000/svg">
<rect width="48" height="48" rx="5" fill="#F5FAFF"/>
<path fill-rule="evenodd" clip-rule="evenodd" d="M25.3333 10.6663C25.3333 9.92996 24.7364 9.33301 24 9.33301C23.2636 9.33301 22.6667 9.92996 22.6667 10.6663V11.9997C18.9848 11.9997 16 14.9844 16 18.6663C16 22.3482 18.9848 25.333 22.6667 25.333V33.333C20.4575 33.333 18.6667 31.5421 18.6667 29.333C18.6667 28.5966 18.0697 27.9997 17.3333 27.9997C16.597 27.9997 16 28.5966 16 29.333C16 33.0149 18.9848 35.9997 22.6667 35.9997L22.6667 37.333C22.6667 38.0694 23.2636 38.6663 24 38.6663C24.7364 38.6663 25.3333 38.0694 25.3333 37.333L25.3333 35.9997C29.0152 35.9997 32 33.0149 32 29.333C32 25.6511 29.0152 22.6663 25.3333 22.6663V14.6663C27.5425 14.6663 29.3333 16.4572 29.3333 18.6663C29.3333 19.4027 29.9303 19.9997 30.6667 19.9997C31.403 19.9997 32 19.4027 32 18.6663C32 14.9844 29.0152 11.9997 25.3333 11.9997V10.6663ZM29.3333 29.333C29.3333 31.5421 27.5425 33.333 25.3333 33.333V25.333C27.5425 25.333 29.3333 27.1239 29.3333 29.333ZM18.6667 18.6663C18.6667 16.4572 20.4575 14.6663 22.6667 14.6663V22.6663C20.4575 22.6663 18.6667 20.8755 18.6667 18.6663Z" fill="#437EF7"/>
</svg>
