<svg width="48" height="48" viewBox="0 0 48 48" fill="none" xmlns="http://www.w3.org/2000/svg">
<rect width="48" height="48" rx="5" fill="#F5FAFF"/>
<path d="M17.3333 17.333C17.3333 14.3875 19.7211 11.9997 22.6667 11.9997C25.6122 11.9997 28 14.3875 28 17.333C28 18.0694 28.597 18.6663 29.3333 18.6663C30.0697 18.6663 30.6667 18.0694 30.6667 17.333C30.6667 12.9147 27.0849 9.33301 22.6667 9.33301C18.2484 9.33301 14.6667 12.9147 14.6667 17.333C14.6667 18.4683 14.904 19.5517 15.3329 20.5335C15.6277 21.2083 16.4138 21.5163 17.0886 21.2215C17.7633 20.9267 18.0714 20.1406 17.7765 19.4658C17.4919 18.8144 17.3333 18.094 17.3333 17.333Z" fill="#437EF7"/>
<path d="M34.57 27.3573L32.0476 38.6663L20.0032 38.6663L19.1758 36.1933C18.6038 34.4839 17.3737 33.0708 15.756 32.2649L13.4892 31.1357C12.2904 30.5385 11.7148 29.1539 12.1386 27.8871C12.6569 26.338 14.4322 25.6054 15.8981 26.3357L20.0032 28.3806L20 17.333C20 15.9128 21.2412 14.6663 22.6667 14.6663C24.0921 14.6663 25.3333 15.8176 25.3333 17.2378V21.333L31.3109 22.544C33.5813 22.921 35.0694 25.1187 34.57 27.3573Z" fill="#437EF7"/>
</svg>
