<svg width="120" height="24" viewBox="0 0 120 24" fill="none" xmlns="http://www.w3.org/2000/svg">
<path d="M13.6652 3.07822L15.3167 6.56396C15.5874 7.13459 16.1101 7.53007 16.7149 7.62167L20.4084 8.18071C21.9312 8.41113 22.5393 10.3599 21.4372 11.4787L18.7638 14.1916C18.3263 14.6358 18.1266 15.2759 18.2299 15.9032L18.8607 19.7343C19.1211 21.3139 17.529 22.5182 16.1674 21.7727L12.8637 19.9649C12.3228 19.6686 11.6765 19.6686 11.1356 19.9649L7.83198 21.7738C6.47035 22.5194 4.87819 21.3137 5.1386 19.7355L5.76947 15.9044C5.8732 15.2768 5.67337 14.6362 5.23556 14.1916L2.56278 11.4784C1.46072 10.3596 2.06885 8.41082 3.59164 8.1804L7.28515 7.62137C7.88994 7.52975 8.41258 7.13424 8.68328 6.56365L10.3342 3.07827C11.016 1.64061 12.9834 1.64056 13.6652 3.07822Z" fill="#FFAE43"/>
<path d="M37.6652 3.07822L39.3167 6.56396C39.5874 7.13459 40.1101 7.53007 40.7149 7.62167L44.4084 8.18071C45.9312 8.41113 46.5393 10.3599 45.4372 11.4787L42.7638 14.1916C42.3263 14.6358 42.1266 15.2759 42.2299 15.9032L42.8607 19.7343C43.1211 21.3139 41.529 22.5182 40.1674 21.7727L36.8637 19.9649C36.3228 19.6686 35.6765 19.6686 35.1356 19.9649L31.832 21.7738C30.4704 22.5194 28.8782 21.3137 29.1386 19.7355L29.7695 15.9044C29.8732 15.2768 29.6734 14.6362 29.2356 14.1916L26.5628 11.4784C25.4607 10.3596 26.0689 8.41082 27.5916 8.1804L31.2852 7.62137C31.8899 7.52975 32.4126 7.13424 32.6833 6.56365L34.3342 3.07827C35.016 1.64061 36.9834 1.64056 37.6652 3.07822Z" fill="#FFAE43"/>
<path d="M61.6652 3.07822L63.3167 6.56396C63.5874 7.13459 64.1101 7.53007 64.7149 7.62167L68.4084 8.18071C69.9312 8.41113 70.5393 10.3599 69.4372 11.4787L66.7638 14.1916C66.3263 14.6358 66.1266 15.2759 66.2299 15.9032L66.8607 19.7343C67.1211 21.3139 65.529 22.5182 64.1674 21.7727L60.8637 19.9649C60.3228 19.6686 59.6765 19.6686 59.1356 19.9649L55.832 21.7738C54.4704 22.5194 52.8782 21.3137 53.1386 19.7355L53.7695 15.9044C53.8732 15.2768 53.6734 14.6362 53.2356 14.1916L50.5628 11.4784C49.4607 10.3596 50.0689 8.41082 51.5916 8.1804L55.2852 7.62137C55.8899 7.52975 56.4126 7.13424 56.6833 6.56365L58.3342 3.07827C59.016 1.64061 60.9834 1.64056 61.6652 3.07822Z" fill="#FFAE43"/>
<path d="M85.6652 3.07822L87.3167 6.56396C87.5874 7.13459 88.1101 7.53007 88.7149 7.62167L92.4084 8.18071C93.9312 8.41113 94.5393 10.3599 93.4372 11.4787L90.7638 14.1916C90.3263 14.6358 90.1266 15.2759 90.2299 15.9032L90.8607 19.7343C91.1211 21.3139 89.529 22.5182 88.1674 21.7727L84.8637 19.9649C84.3228 19.6686 83.6765 19.6686 83.1356 19.9649L79.832 21.7738C78.4704 22.5194 76.8782 21.3137 77.1386 19.7355L77.7695 15.9044C77.8732 15.2768 77.6734 14.6362 77.2356 14.1916L74.5628 11.4784C73.4607 10.3596 74.0689 8.41082 75.5916 8.1804L79.2852 7.62137C79.8899 7.52975 80.4126 7.13424 80.6833 6.56365L82.3342 3.07827C83.016 1.64061 84.9834 1.64056 85.6652 3.07822Z" fill="#FFAE43"/>
<path d="M109.665 3.07822L111.317 6.56396C111.587 7.13459 112.11 7.53007 112.715 7.62167L116.408 8.18071C117.931 8.41113 118.539 10.3599 117.437 11.4787L114.764 14.1916C114.326 14.6358 114.127 15.2759 114.23 15.9032L114.861 19.7343C115.121 21.3139 113.529 22.5182 112.167 21.7727L108.864 19.9649C108.323 19.6686 107.677 19.6686 107.136 19.9649L103.832 21.7738C102.47 22.5194 100.878 21.3137 101.139 19.7355L101.769 15.9044C101.873 15.2768 101.673 14.6362 101.236 14.1916L98.5628 11.4784C97.4607 10.3596 98.0689 8.41082 99.5916 8.1804L103.285 7.62137C103.89 7.52975 104.413 7.13424 104.683 6.56365L106.334 3.07827C107.016 1.64061 108.983 1.64056 109.665 3.07822Z" fill="#FFAE43"/>
</svg>
