<svg width="48" height="48" viewBox="0 0 48 48" fill="none" xmlns="http://www.w3.org/2000/svg">
<rect width="48" height="48" rx="5" fill="#F5FAFF"/>
<path d="M23.0397 12.235C23.6442 11.9217 24.3558 11.9217 24.9604 12.235L34.813 17.3421C36.3957 18.1625 36.3957 20.5041 34.813 21.3246L24.9604 26.4316C24.3558 26.745 23.6442 26.745 23.0397 26.4316L13.1871 21.3246C11.6044 20.5041 11.6043 18.1625 13.1871 17.3421L23.0397 12.235Z" fill="#437EF7"/>
<path d="M13.9332 24.1425C13.2755 23.8113 12.4739 24.0759 12.1426 24.7335C11.8113 25.3912 12.0759 26.1929 12.7336 26.5241L23.1021 31.7469C23.6671 32.0315 24.333 32.0315 24.898 31.7469L35.2665 26.5241C35.9242 26.1929 36.1888 25.3912 35.8575 24.7335C35.5262 24.0759 34.7245 23.8113 34.0669 24.1425L24 29.2134L13.9332 24.1425Z" fill="#437EF7"/>
<path d="M13.9332 29.5155C13.2755 29.1842 12.4739 29.4488 12.1426 30.1065C11.8113 30.7641 12.0759 31.5658 12.7336 31.8971L23.1021 37.1199C23.6671 37.4045 24.333 37.4045 24.898 37.1199L35.2665 31.8971C35.9242 31.5658 36.1888 30.7641 35.8575 30.1065C35.5262 29.4488 34.7245 29.1842 34.0669 29.5155L24 34.5863L13.9332 29.5155Z" fill="#437EF7"/>
</svg>
