<svg width="48" height="48" viewBox="0 0 48 48" fill="none" xmlns="http://www.w3.org/2000/svg">
<rect width="48" height="48" rx="5" fill="#F5FAFF"/>
<path d="M28.7977 21.5791C29.0357 21.817 29.2674 22.0487 29.4476 22.261C29.6455 22.4941 29.8583 22.79 29.9838 23.1763C30.1578 23.7119 30.1578 24.2888 29.9838 24.8244C29.8583 25.2107 29.6455 25.5065 29.4476 25.7396C29.2674 25.9519 29.0357 26.1836 28.7977 26.4215L26.2761 28.9431C25.7554 29.4638 24.9112 29.4638 24.3905 28.9431C23.8698 28.4224 23.8698 27.5782 24.3905 27.0575L26.1143 25.3337H13.3333C12.597 25.3337 12 24.7367 12 24.0003C12 23.2639 12.597 22.667 13.3333 22.667H26.1143L24.3905 20.9431C23.8698 20.4224 23.8698 19.5782 24.3905 19.0575C24.9112 18.5368 25.7554 18.5368 26.2761 19.0575L28.7977 21.5791Z" fill="#437EF7"/>
<path d="M18.6667 14.9337C18.6667 13.4402 18.6667 12.6934 18.9573 12.123C19.213 11.6213 19.6209 11.2133 20.1227 10.9576C20.6931 10.667 21.4399 10.667 22.9333 10.667H30.4C31.8935 10.667 32.6402 10.667 33.2106 10.9576C33.7124 11.2133 34.1204 11.6213 34.376 12.123C34.6667 12.6934 34.6667 13.4402 34.6667 14.9337V33.067C34.6667 34.5605 34.6667 35.3072 34.376 35.8776C34.1204 36.3794 33.7124 36.7873 33.2106 37.043C32.6402 37.3337 31.8935 37.3337 30.4 37.3337H22.9333C21.4399 37.3337 20.6931 37.3337 20.1227 37.043C19.6209 36.7873 19.213 36.3794 18.9573 35.8776C18.6667 35.3072 18.6667 34.5605 18.6667 33.067V28.0003H21.3333C21.3333 29.024 21.7238 30.0477 22.5049 30.8288C24.067 32.3909 26.5996 32.3909 28.1617 30.8288L30.7149 28.2756C30.9289 28.0618 31.2282 27.7627 31.4805 27.4655C31.7863 27.1052 32.2426 26.5021 32.52 25.6484C32.868 24.5773 32.868 23.4234 32.52 22.3522C32.2426 21.4986 31.7863 20.8954 31.4805 20.5352C31.2281 20.2379 30.9289 19.9389 30.7149 19.725L28.1617 17.1719C26.5996 15.6098 24.067 15.6098 22.5049 17.1719C21.7238 17.9529 21.3333 18.9766 21.3333 20.0003H18.6667V14.9337Z" fill="#437EF7"/>
</svg>
